<?xml version="1.0" encoding="UTF-8" standalone="no"?>
<!-- Created with Inkscape (http://www.inkscape.org/) -->

<svg
   xmlns:dc="http://purl.org/dc/elements/1.1/"
   xmlns:cc="http://creativecommons.org/ns#"
   xmlns:rdf="http://www.w3.org/1999/02/22-rdf-syntax-ns#"
   xmlns:svg="http://www.w3.org/2000/svg"
   xmlns="http://www.w3.org/2000/svg"
   xmlns:sodipodi="http://sodipodi.sourceforge.net/DTD/sodipodi-0.dtd"
   xmlns:inkscape="http://www.inkscape.org/namespaces/inkscape"
   width="188.20706"
   height="198.21529"
   id="svg2"
   version="1.1"
   inkscape:version="0.48.2 r9819"
   sodipodi:docname="api.svg">
  <title
     id="title3900">API Icon</title>
  <defs
     id="defs4" />
  <sodipodi:namedview
     id="base"
     pagecolor="#ffffff"
     bordercolor="#666666"
     borderopacity="1.0"
     inkscape:pageopacity="0.0"
     inkscape:pageshadow="2"
     inkscape:zoom="0.49497475"
     inkscape:cx="-171.37609"
     inkscape:cy="-56.204684"
     inkscape:document-units="px"
     inkscape:current-layer="layer1"
     showgrid="false"
     fit-margin-top="0"
     fit-margin-left="0"
     fit-margin-right="0"
     fit-margin-bottom="0"
     inkscape:window-width="1280"
     inkscape:window-height="976"
     inkscape:window-x="0"
     inkscape:window-y="26"
     inkscape:window-maximized="1" />
  <metadata
     id="metadata7">
    <rdf:RDF>
      <cc:Work
         rdf:about="">
        <dc:format>image/svg+xml</dc:format>
        <dc:type
           rdf:resource="http://purl.org/dc/dcmitype/StillImage" />
        <dc:title>API Icon</dc:title>
        <cc:license
           rdf:resource="http://creativecommons.org/licenses/publicdomain/" />
        <dc:creator>
          <cc:Agent>
            <dc:title>Benjamin Pavie</dc:title>
          </cc:Agent>
        </dc:creator>
      </cc:Work>
      <cc:License
         rdf:about="http://creativecommons.org/licenses/publicdomain/">
        <cc:permits
           rdf:resource="http://creativecommons.org/ns#Reproduction" />
        <cc:permits
           rdf:resource="http://creativecommons.org/ns#Distribution" />
        <cc:permits
           rdf:resource="http://creativecommons.org/ns#DerivativeWorks" />
      </cc:License>
    </rdf:RDF>
  </metadata>
  <g
     inkscape:label="Layer 1"
     inkscape:groupmode="layer"
     id="layer1"
     transform="translate(-291.62063,-284.125)">
    <g
       id="g3876"
       style="fill:#0072b5;fill-opacity:1;stroke:none">
      <path
         id="path3825"
         d="m 385.65625,284.125 c -14.22625,0 -25.75,5.09872 -25.75,11.375 0,1.18965 0.419,2.32855 1.1875,3.40625 l -0.0625,0.0312 c 14.54348,11.8751 42.94937,8.51112 49.625,-1.125 l 0,0.46875 c 0.50837,-0.8858 0.78125,-1.82641 0.78125,-2.78125 l -0.0312,-0.125 c -0.14393,-6.23078 -11.62617,-11.25 -25.75,-11.25 z m 24.96875,15.21875 -0.34375,11.875 c -9.2262,11.01191 -37.92113,13.08631 -50.71875,-0.1875 l 0.34375,-11.40625 -15.28125,8.9375 c -1.37485,-0.10011 -2.78003,-0.1875 -4.21875,-0.1875 -14.22625,0 -25.75,5.09872 -25.75,11.375 0,1.50283 0.69691,2.93816 1.90625,4.25 14.72642,11.25223 42.39273,7.86734 48.96875,-1.625 l -0.34375,13.375 c -9.2262,11.01191 -37.92113,13.08631 -50.71875,-0.1875 l 0.25,-9.4375 -19.75,11.5625 91.46875,52.53125 91.40625,-52.84375 -21.03125,-11.90625 -0.28125,9.75 c -9.2262,11.01191 -37.92113,13.08631 -50.71875,-0.1875 L 406.1875,322 c 14.06392,12.88207 43.43973,9.74487 50.5625,0.0312 0.0114,-0.0212 0.0201,-0.0413 0.0312,-0.0625 0.41734,-0.79411 0.65625,-1.61333 0.65625,-2.46875 l -0.0312,-0.125 c -0.14393,-6.23078 -11.62617,-11.25 -25.75,-11.25 -1.74592,0 -3.4453,0.10394 -5.09375,0.25 L 410.625,299.3437 z m 1.15625,49.03125 -0.34375,13.40625 c -9.2262,11.01191 -37.92113,13.08631 -50.71875,-0.1875 l 0.34375,-13.03125 c 14.16668,12.97619 43.87351,9.69345 50.71875,-0.1875 z"
         style="fill:#0072b5;fill-opacity:1;stroke:none"
         inkscape:connector-curvature="0" />
      <path
         sodipodi:nodetypes="ccccc"
         inkscape:connector-curvature="0"
         id="path3805"
         d="m 292.12571,354.30616 85.16627,50.54824 0,76.77159 -85.67135,-48.02285 z"
         style="fill:#0072b5;fill-opacity:1;stroke:none" />
      <path
         sodipodi:nodetypes="ccccc"
         inkscape:connector-curvature="0"
         id="path3805-4"
         d="m 479.82769,352.49507 -85.67135,53.07362 0,76.77159 85.67135,-48.02285 z"
         style="fill:#0072b5;fill-opacity:1;stroke:none" />
    </g>
  </g>
</svg>
